Coordinates
version=1
nRows=21
nColumns=12
inDegrees=yes

Units are S.I. units (second, meters, Newtons, ...)
Angles are in degrees

endheader
time	SC_y	SC_z	SC_x	AC_y	AC_z	AC_x	GH_y	GH_z	GH_yy	EL_x	PS_y
       0.0               -48.4           6.21          5.374          65.21         -17.99          5.732          131.8          16.03           56.6          76.28          87.83
  0.001002               -48.4          6.208          5.378          65.21         -17.99          5.731          131.7          16.04          56.57          76.29          87.84
  0.002004               -48.4          6.207          5.383          65.21         -17.99          5.731          131.7          16.05          56.54           76.3          87.84
  0.003007               -48.4          6.205          5.388          65.21         -17.98           5.73          131.6          16.06          56.51          76.31          87.85
  0.004009               -48.4          6.203          5.393          65.21         -17.98           5.73          131.6          16.07          56.47          76.32          87.86
  0.005011               -48.4          6.201          5.399           65.2         -17.97          5.729          131.6          16.08          56.44          76.33          87.86
  0.006013               -48.4          6.199          5.405           65.2         -17.97          5.729          131.5           16.1           56.4          76.34          87.87
  0.007015               -48.4          6.197          5.412           65.2         -17.96          5.728          131.5          16.11          56.35          76.36          87.88
  0.008018               -48.4          6.194          5.418           65.2         -17.95          5.728          131.4          16.12          56.31          76.37          87.89
   0.00902              -48.39          6.192          5.426           65.2         -17.95          5.727          131.3          16.14          56.26          76.39           87.9
   0.01002              -48.39          6.189          5.434           65.2         -17.94          5.726          131.3          16.15           56.2          76.41          87.91
   0.01102              -48.39          6.186          5.442           65.2         -17.93          5.725          131.2          16.17          56.15          76.42          87.92
   0.01203              -48.39          6.183          5.452           65.2         -17.93          5.724          131.1          16.19          56.09          76.44          87.94
   0.01303              -48.39          6.179          5.462           65.2         -17.92          5.723          131.1          16.21          56.02          76.46          87.95
   0.01403              -48.39          6.175          5.472           65.2         -17.91          5.722          131.0          16.23          55.95          76.49          87.97
   0.01503              -48.39          6.171          5.484           65.2          -17.9          5.721          130.9          16.26          55.87          76.51          87.98
   0.01604              -48.39          6.167          5.497           65.2         -17.89           5.72          130.8          16.28          55.79          76.54           88.0
   0.01704              -48.38          6.162          5.511           65.2         -17.87          5.719          130.7          16.31          55.69          76.57          88.02
   0.01804              -48.38          6.157          5.526          65.19         -17.86          5.717          130.6          16.34          55.59           76.6          88.04
   0.01904              -48.38          6.151          5.542          65.19         -17.85          5.716          130.4          16.38          55.48          76.63          88.06
   0.02004              -48.38          6.145          5.561          65.19         -17.83          5.714          130.3          16.41          55.36          76.67          88.09
